<svg width="20" height="20" fill="none" xmlns="http://www.w3.org/2000/svg"><path d="M.29 1.376a.986.986 0 0 1 1.403 0l14.876 15c.387.39.387 1.024 0 1.414a.986.986 0 0 1-1.402 0L.29 2.79a1.006 1.006 0 0 1 0-1.414ZM.598 5.192A3.005 3.005 0 0 0 .165 6.75v7.333c0 1.657 1.332 3 2.975 3h9.223L.639 5.237a.84.84 0 0 1-.041-.045ZM14.215 6.75v5.153L6.146 3.75h5.094c1.643 0 2.975 1.343 2.975 3ZM18.389 5.883l-2.521 2.034v5l2.52 2.033c.65.524 1.612.058 1.612-.78V6.663c0-.839-.962-1.305-1.611-.78Z" fill="#ff00ff"/></svg>