<svg width="48" height="48" fill="none" xmlns="http://www.w3.org/2000/svg"><path fill-rule="evenodd" clip-rule="evenodd" d="M17.28 2.88A2.88 2.88 0 0 1 20.16 0c10.604 0 19.2 8.596 19.2 19.2a2.88 2.88 0 1 1-5.76 0c0-7.423-6.017-13.44-13.44-13.44a2.88 2.88 0 0 1-2.88-2.88ZM30.72 45.12A2.88 2.88 0 0 1 27.84 48c-10.604 0-19.2-8.596-19.2-19.2a2.88 2.88 0 1 1 5.76 0c0 7.423 6.017 13.44 13.44 13.44a2.88 2.88 0 0 1 2.88 2.88ZM2.88 30.72A2.88 2.88 0 0 1 0 27.84c0-10.604 8.596-19.2 19.2-19.2a2.88 2.88 0 1 1 0 5.76c-7.423 0-13.44 6.017-13.44 13.44a2.88 2.88 0 0 1-2.88 2.88ZM45.12 17.28A2.88 2.88 0 0 1 48 20.16c0 10.604-8.596 19.2-19.2 19.2a2.88 2.88 0 1 1 0-5.76c7.423 0 13.44-6.017 13.44-13.44a2.88 2.88 0 0 1 2.88-2.88Z" fill="#ff00ff"/></svg>