<svg width="16" height="16" fill="none" xmlns="http://www.w3.org/2000/svg"><path fill-rule="evenodd" clip-rule="evenodd" d="M4 0a4 4 0 0 0-4 4v8a4 4 0 0 0 4 4h8a4 4 0 0 0 4-4V4a4 4 0 0 0-4-4H4ZM2.5 3.75a1 1 0 0 0-1 1v6.5a1 1 0 0 0 1 1h1a1 1 0 0 0 1-1v-6.5a1 1 0 0 0-1-1h-1Zm8.5 6a1 1 0 0 1 1-1h1.5a1 1 0 0 1 1 1v1.5a1 1 0 0 1-1 1H12a1 1 0 0 1-1-1v-1.5Zm-4-1a1 1 0 0 0-1 1v1.5a1 1 0 0 0 1 1h1.5a1 1 0 0 0 1-1v-1.5a1 1 0 0 0-1-1H7Zm4-4a1 1 0 0 1 1-1h1.5a1 1 0 0 1 1 1v1.5a1 1 0 0 1-1 1H12a1 1 0 0 1-1-1v-1.5Zm-4-1a1 1 0 0 0-1 1v1.5a1 1 0 0 0 1 1h1.5a1 1 0 0 0 1-1v-1.5a1 1 0 0 0-1-1H7Z" fill="#ff00ff"/></svg>