<svg width="24" height="24" fill="none" xmlns="http://www.w3.org/2000/svg"><path d="M12.008 7.756c-1.687-.064-5.157.373-6 .595l-.172.045C4.541 8.726.483 9.762.044 13.044c-.34 2.542 1.362 3.312 2.212 3.195.589-.074 2.274-.34 3.831-.62 1.53-.274 1.529-1.283 1.528-1.965v-1.409c0-.349.328-.55.78-.605a26.087 26.087 0 0 1 3.61-.219h.006c.67 0 1.99.001 3.593.219.453.054.781.256.781.605v1.409c0 .682-.001 1.69 1.528 1.965 1.557.28 3.242.546 3.83.62.851.117 2.553-.653 2.213-3.195-.439-3.282-4.497-4.318-5.792-4.648l-.172-.045c-.843-.222-4.296-.66-5.984-.595Z" fill="#ff00ff"/></svg>