<svg width="24" height="24" fill="none" xmlns="http://www.w3.org/2000/svg"><path d="M8.067 6.252C8.067 4.18 9.828 2.5 12 2.5c2.172 0 3.933 1.68 3.933 3.752v5.61c0 2.072-1.76 3.752-3.933 3.752-2.172 0-3.933-1.68-3.933-3.752z" fill="#ff00ff"/><path d="M5.118 10.665c.696 0 1.26.538 1.26 1.202 0 2.951 2.508 5.347 5.607 5.355h.03c3.1-.008 5.607-2.404 5.607-5.355 0-.664.564-1.202 1.26-1.202.696 0 1.26.538 1.26 1.202 0 3.878-2.984 7.09-6.881 7.667v.763c0 .665-.565 1.203-1.26 1.203-.697 0-1.261-.538-1.261-1.203v-.763c-3.898-.577-6.883-3.789-6.883-7.667 0-.664.565-1.202 1.26-1.202z" fill="#ff00ff"/></svg>