<svg width="24" height="24" fill="none" xmlns="http://www.w3.org/2000/svg"><path d="M4.122 2.778a.95.95 0 1 0-1.344 1.344L8.2 9.544V12a3.8 3.8 0 0 0 5.73 3.274l1.373 1.372A5.7 5.7 0 0 1 6.3 12a.95.95 0 0 0-1.9 0 7.601 7.601 0 0 0 6.65 7.541v1.009a.95.95 0 1 0 1.9 0v-1.009a7.562 7.562 0 0 0 3.71-1.537l3.218 3.218a.95.95 0 1 0 1.344-1.344zM17.502 13.494l1.489 1.492c.392-.917.609-1.926.609-2.986a.95.95 0 1 0-1.9 0c0 .517-.069 1.018-.198 1.494zM8.61 4.583l7.19 7.206V6.3a3.8 3.8 0 0 0-7.19-1.717z" fill="#ff00ff"/></svg>