<svg width="25" height="24" viewBox="0 0 24 24" fill="none" xmlns="http://www.w3.org/2000/svg"><mask id="a" fill="white"><path fill-rule="evenodd" clip-rule="evenodd" d="M18.15 21.121A10.95 10.95 0 0 1 12 23c-2.476 0-4.762-.818-6.6-2.2A10.983 10.983 0 0 1 1 12C1 5.925 5.925 1 12 1s11 4.925 11 11a10.99 10.99 0 0 1-4.85 9.121ZM12 12.55c1.822 0 3.3-1.6 3.3-3.575C15.3 7.001 13.822 5.4 12 5.4c-1.822 0-3.3 1.6-3.3 3.575 0 1.974 1.478 3.575 3.3 3.575Zm0 8.25a8.77 8.77 0 0 0 6.12-2.476 6.602 6.602 0 0 0-12.24 0A8.771 8.771 0 0 0 12 20.8Z"/></mask><path fill-rule="evenodd" clip-rule="evenodd" d="M18.15 21.121A10.95 10.95 0 0 1 12 23c-2.476 0-4.762-.818-6.6-2.2A10.983 10.983 0 0 1 1 12C1 5.925 5.925 1 12 1s11 4.925 11 11a10.99 10.99 0 0 1-4.85 9.121ZM12 12.55c1.822 0 3.3-1.6 3.3-3.575C15.3 7.001 13.822 5.4 12 5.4c-1.822 0-3.3 1.6-3.3 3.575 0 1.974 1.478 3.575 3.3 3.575Zm0 8.25a8.77 8.77 0 0 0 6.12-2.476 6.602 6.602 0 0 0-12.24 0A8.771 8.771 0 0 0 12 20.8Z" fill="#ff00ff"/><path d="m18.15 21.121.784 1.16-.784-1.16Zm-12.75-.32-.84 1.12.84-1.12Zm12.72-2.477.973 1.006.679-.657-.355-.875-1.297.526Zm-12.24 0-1.297-.526-.355.875.679.657.973-1.006ZM12 24.4c2.566 0 4.954-.781 6.934-2.119l-1.568-2.32A9.55 9.55 0 0 1 12 21.6v2.8Zm-7.44-2.48A12.351 12.351 0 0 0 12 24.4v-2.8a9.551 9.551 0 0 1-5.76-1.919l-1.68 2.24ZM-.4 12c0 4.058 1.95 7.66 4.96 9.92l1.68-2.239A9.583 9.583 0 0 1 2.4 12H-.4ZM12-.4C5.152-.4-.4 5.152-.4 12h2.8A9.6 9.6 0 0 1 12 2.4V-.4ZM24.4 12C24.4 5.152 18.848-.4 12-.4v2.8a9.6 9.6 0 0 1 9.6 9.6h2.8Zm-5.466 10.281c3.295-2.226 5.466-6 5.466-10.281h-2.8a9.59 9.59 0 0 1-4.234 7.961l1.568 2.32ZM13.9 8.975c0 1.309-.954 2.175-1.9 2.175v2.8c2.7 0 4.7-2.335 4.7-4.975h-2.8ZM12 6.8c.946 0 1.9.866 1.9 2.175h2.8C16.7 6.335 14.7 4 12 4v2.8Zm-1.9 2.175c0-1.309.954-2.175 1.9-2.175V4C9.3 4 7.3 6.335 7.3 8.975h2.8ZM12 11.15c-.946 0-1.9-.866-1.9-2.175H7.3c0 2.64 2 4.975 4.7 4.975v-2.8Zm5.146 6.168A7.371 7.371 0 0 1 12 19.4v2.8a10.17 10.17 0 0 0 7.093-2.87l-1.947-2.012ZM12 15.6c2.18 0 4.05 1.342 4.822 3.25l2.595-1.052A8.002 8.002 0 0 0 12 12.8v2.8Zm-4.822 3.25A5.202 5.202 0 0 1 12 15.6v-2.8a8.002 8.002 0 0 0-7.417 4.998l2.595 1.051ZM12 19.4c-2 0-3.813-.792-5.146-2.082L4.907 19.33A10.17 10.17 0 0 0 12 22.2v-2.8Z" fill="#ff00ff" mask="url(#a)"/></svg>