<svg width="24" height="24" fill="none" xmlns="http://www.w3.org/2000/svg"><path fill-rule="evenodd" clip-rule="evenodd" d="M19.363 9.287c.2.525.712.875 1.274.875.75 0 1.363.613 1.363 1.363v.95c0 .75-.613 1.363-1.363 1.363-.562 0-1.075.35-1.274.875l-.05.125c-.06.15-.12.303-.188.45A1.338 1.338 0 0 0 19.4 16.8a1.35 1.35 0 0 1 0 1.925l-.675.675a1.35 1.35 0 0 1-1.925 0c-.387-.4-1-.512-1.513-.275a7.905 7.905 0 0 1-.575.238c-.524.2-.874.712-.874 1.274 0 .75-.613 1.363-1.363 1.363h-.95c-.75 0-1.363-.613-1.363-1.363 0-.562-.35-1.075-.875-1.274a23.677 23.677 0 0 0-.125-.05c-.15-.06-.303-.12-.45-.188A1.338 1.338 0 0 0 7.2 19.4a1.35 1.35 0 0 1-1.925 0l-.675-.675a1.35 1.35 0 0 1 0-1.925c.4-.387.513-1 .275-1.513a7.905 7.905 0 0 1-.237-.575 1.369 1.369 0 0 0-1.276-.874c-.75 0-1.362-.613-1.362-1.363v-.95c0-.75.612-1.363 1.362-1.363.563 0 1.075-.35 1.276-.875.039-.126.088-.247.138-.37.03-.071.059-.143.087-.217a1.338 1.338 0 0 0-.276-1.512 1.35 1.35 0 0 1 0-1.925l.688-.663a1.35 1.35 0 0 1 1.925 0c.388.4 1 .513 1.513.275.187-.088.375-.175.575-.237.524-.2.874-.713.874-1.276 0-.75.613-1.362 1.363-1.362h.95c.75 0 1.363.612 1.363 1.362 0 .575.35 1.075.875 1.276l.125.05c.15.058.303.119.45.187A1.338 1.338 0 0 0 16.8 4.6a1.35 1.35 0 0 1 1.925 0l.675.675a1.35 1.35 0 0 1 0 1.925c-.4.388-.512 1-.275 1.513.087.187.163.375.238.575ZM12 17c-2.762 0-5-2.238-5-5s2.238-5 5-5 5 2.238 5 5-2.238 5-5 5Z" fill="#ff00ff"/></svg>